<?xml version="1.0" encoding="UTF-8" standalone="no"?>
<!-- Created with Inkscape (http://www.inkscape.org/) -->

<svg
   xmlns:dc="http://purl.org/dc/elements/1.1/"
   xmlns:cc="http://creativecommons.org/ns#"
   xmlns:rdf="http://www.w3.org/1999/02/22-rdf-syntax-ns#"
   xmlns:svg="http://www.w3.org/2000/svg"
   xmlns="http://www.w3.org/2000/svg"
   version="1.1"
   width="100"
   height="100"
   viewBox="0 0 100 100"
   id="Icons"
   xml:space="preserve"><metadata
   id="metadata5553"><rdf:RDF><cc:Work
       rdf:about=""><dc:format>image/svg+xml</dc:format><dc:type
         rdf:resource="http://purl.org/dc/dcmitype/StillImage" /><dc:title></dc:title></cc:Work></rdf:RDF></metadata><defs
   id="defs5551" />
<path
   d="m 58.23,39.879 c 0,3.861 0.162,6.879 -1.845,10.229 -1.172,2.348 -3.182,3.86 -5.36,4.365 -0.335,0 -0.833,0.173 -1.339,0.173 -3.684,0 -5.867,-2.853 -5.867,-7.051 0,-5.367 3.187,-7.888 7.206,-9.062 2.179,-0.504 4.692,-0.67 7.205,-0.67 v 2.016 z m 0,-9.738 c -2.179,0.172 -4.692,0.338 -7.205,0.676 -3.852,0.498 -7.705,1.174 -10.887,2.68 -6.198,2.521 -10.388,7.888 -10.388,15.775 0,9.904 6.368,14.931 14.407,14.931 2.683,0 4.86,-0.33 6.867,-0.834 3.186,-1.008 5.864,-2.852 9.046,-6.209 1.845,2.521 2.344,3.695 5.53,6.375 0.838,0.339 1.675,0.339 2.344,-0.166 2.01,-1.678 5.525,-4.696 7.373,-6.375 0.835,-0.677 0.665,-1.679 0.167,-2.521 -1.846,-2.348 -3.686,-4.365 -3.686,-8.889 V 30.479 c 0,-6.381 0.499,-12.252 -4.188,-16.61 C 63.76,10.339 57.728,9 53.038,9 c -0.672,0 -1.34,0 -2.013,0 -8.543,0.504 -17.589,4.191 -19.602,14.766 -0.331,1.339 0.676,1.844 1.345,2.017 l 9.38,1.174 c 1.006,-0.173 1.506,-1.009 1.671,-1.852 0.843,-3.688 3.856,-5.531 7.206,-5.87 0.169,0 0.337,0 0.673,0 2.005,0 4.184,0.842 5.359,2.513 1.335,2.018 1.173,4.704 1.173,7.052 v 1.341 z"
   id="path8732"
   style="fill:#000000;fill-opacity:1" /><path
   d="M 5.451,73.95 C 17.189,84.616 32.659,91 49.954,91 c 10.739,0 23.113,-3.011 32.671,-8.752 1.276,-0.735 2.546,-1.555 3.729,-2.463 1.639,-1.182 0.183,-3.011 -1.456,-2.284 -0.727,0.274 -1.547,0.642 -2.272,0.915 -10.471,4.106 -21.475,6.021 -31.672,6.021 -16.201,0 -31.852,-4.471 -44.503,-11.854 -1.183,-0.635 -2.004,0.545 -1,1.367 z M 89.086,86.986 C 93.181,83.522 94.91,77.233 95,73.95 v -0.547 c 0,-0.734 -0.181,-1.275 -0.359,-1.549 -0.82,-1.001 -6.832,-1.917 -12.016,-0.367 -1.456,0.461 -2.732,1.095 -3.915,1.916 -0.91,0.641 -0.728,1.454 0.182,1.367 1.001,-0.186 2.277,-0.272 3.733,-0.461 3.185,-0.266 6.917,-0.359 7.826,0.823 1.27,1.547 -1.456,8.296 -2.643,11.214 -0.359,0.916 0.458,1.281 1.278,0.64 z"
   id="Amazon"
   style="fill:#f69710;fill-opacity:1" />
</svg>