<?xml version="1.0" encoding="UTF-8" standalone="no"?>
<!-- Generator: Adobe Illustrator 15.0.0, SVG Export Plug-In . SVG Version: 6.00 Build 0)  -->

<svg
   xmlns:dc="http://purl.org/dc/elements/1.1/"
   xmlns:cc="http://creativecommons.org/ns#"
   xmlns:rdf="http://www.w3.org/1999/02/22-rdf-syntax-ns#"
   xmlns:svg="http://www.w3.org/2000/svg"
   xmlns="http://www.w3.org/2000/svg"
   xmlns:sodipodi="http://sodipodi.sourceforge.net/DTD/sodipodi-0.dtd"
   xmlns:inkscape="http://www.inkscape.org/namespaces/inkscape"
   version="1.1"
   id="Icons"
   x="0px"
   y="0px"
   width="100px"
   height="100px"
   viewBox="0 0 100 100"
   style="enable-background:new 0 0 100 100;"
   xml:space="preserve"
   inkscape:version="0.48.2 r9819"
   sodipodi:docname="delicious.svg"><metadata
   id="metadata3832"><rdf:RDF><cc:Work
       rdf:about=""><dc:format>image/svg+xml</dc:format><dc:type
         rdf:resource="http://purl.org/dc/dcmitype/StillImage" /></cc:Work></rdf:RDF></metadata><defs
   id="defs3830" /><sodipodi:namedview
   pagecolor="#ffffff"
   bordercolor="#666666"
   borderopacity="1"
   objecttolerance="10"
   gridtolerance="10"
   guidetolerance="10"
   inkscape:pageopacity="0"
   inkscape:pageshadow="2"
   inkscape:window-width="1304"
   inkscape:window-height="746"
   id="namedview3828"
   showgrid="false"
   inkscape:zoom="5.57"
   inkscape:cx="21.992819"
   inkscape:cy="50"
   inkscape:window-x="54"
   inkscape:window-y="-8"
   inkscape:window-maximized="1"
   inkscape:current-layer="Icons" />
<path
   id="Delicious"
   d="M 91.463,32.482 C 88.044,24.403 82.341,17.539 75.163,12.688 71.572,10.261 67.61,8.337 63.382,7.023 59.149,5.708 54.655,4.997 50.002,5 43.797,4.997 37.869,6.259 32.485,8.538 24.405,11.955 17.537,17.658 12.686,24.838 10.261,28.429 8.338,32.39 7.023,36.621 5.706,40.85 4.999,45.349 5,50.001 4.999,56.205 6.259,62.134 8.538,67.52 c 3.417,8.077 9.121,14.941 16.3,19.794 3.59,2.427 7.551,4.345 11.784,5.663 4.229,1.318 8.727,2.023 13.38,2.023 6.202,0 12.131,-1.257 17.515,-3.535 8.081,-3.419 14.945,-9.119 19.798,-16.3 2.424,-3.594 4.347,-7.556 5.662,-11.785 C 94.293,59.152 95,54.654 95,50.001 95.002,43.795 93.743,37.869 91.463,32.482 z m -5.604,32.664 c -2.953,6.979 -7.893,12.926 -14.106,17.121 -3.104,2.102 -6.526,3.763 -10.181,4.897 -3.653,1.134 -7.536,1.746 -11.57,1.751 H 49.998 V 50.044 H 11.087 c 0,-0.015 0,-0.03 0,-0.043 0,-5.382 1.088,-10.492 3.056,-15.146 2.95,-6.979 7.89,-12.929 14.102,-17.126 3.106,-2.097 6.529,-3.756 10.183,-4.893 3.653,-1.136 7.536,-1.749 11.574,-1.749 v 38.914 h 38.911 c 0,5.381 -1.088,10.489 -3.054,15.145 z"
   inkscape:connector-curvature="0"
   style="fill:#161c25;fill-opacity:1" />
</svg>