<?xml version="1.0" encoding="UTF-8" standalone="no"?>
<!-- Created with Inkscape (http://www.inkscape.org/) -->

<svg
   xmlns:dc="http://purl.org/dc/elements/1.1/"
   xmlns:cc="http://creativecommons.org/ns#"
   xmlns:rdf="http://www.w3.org/1999/02/22-rdf-syntax-ns#"
   xmlns:svg="http://www.w3.org/2000/svg"
   xmlns="http://www.w3.org/2000/svg"
   xmlns:sodipodi="http://sodipodi.sourceforge.net/DTD/sodipodi-0.dtd"
   xmlns:inkscape="http://www.inkscape.org/namespaces/inkscape"
   version="1.1"
   width="100"
   height="100"
   viewBox="0 0 100 100"
   id="Icons"
   xml:space="preserve"
   inkscape:version="0.48.2 r9819"
   sodipodi:docname="delicious_hover.svg"><sodipodi:namedview
   pagecolor="#ffffff"
   bordercolor="#666666"
   borderopacity="1"
   objecttolerance="10"
   gridtolerance="10"
   guidetolerance="10"
   inkscape:pageopacity="0"
   inkscape:pageshadow="2"
   inkscape:window-width="1366"
   inkscape:window-height="706"
   id="namedview3023"
   showgrid="false"
   inkscape:zoom="5.17"
   inkscape:cx="50"
   inkscape:cy="50"
   inkscape:window-x="-8"
   inkscape:window-y="-8"
   inkscape:window-maximized="1"
   inkscape:current-layer="Icons" /><metadata
   id="metadata3832"><rdf:RDF><cc:Work
       rdf:about=""><dc:format>image/svg+xml</dc:format><dc:type
         rdf:resource="http://purl.org/dc/dcmitype/StillImage" /><dc:title /></cc:Work></rdf:RDF></metadata><defs
   id="defs3830" />

<path
   d="M 50.001056,50.009432 49.950275,5 c 0.01735,0 0.03469,0 0.04973,0 6.223724,0 12.132908,1.258191 17.514776,3.534037 8.070484,3.411457 14.951041,9.124201 19.804436,16.307918 2.424963,3.591859 4.343424,7.550305 5.658246,11.775885 C 94.291129,40.842264 95,45.332665 95,50.002313 l -45,0 c 0,0 0.01113,0.01423 0.0011,0.0071 z"
   id="Delicious"
   style="fill:#407acc;fill-opacity:1" /><path
   d="m 50.001981,50.001055 45.009432,-0.05078 c 0,0.01735 0,0.03469 0,0.04973 0,6.223724 -1.258191,12.132908 -3.534037,17.514776 -3.411457,8.070484 -9.124201,14.951041 -16.307918,19.804436 -3.591859,2.424963 -7.550305,4.343424 -11.775885,5.658246 C 59.169149,94.291129 54.678748,95 50.0091,95 l 0,-45 c 0,0 -0.01423,0.01113 -0.0071,0.0011 z"
   id="path8751"
   style="fill:#cccccc;fill-opacity:1" /><path
   d="M 49.998945,49.990568 50.049725,95 c -0.01735,0 -0.03469,0 -0.04973,0 C 43.776271,95 37.867087,93.741809 32.485219,91.465963 24.414735,88.054506 17.534178,82.341762 12.680783,75.158045 10.25582,71.566186 8.337359,67.60774 7.022537,63.38216 5.708871,59.157736 5,54.667335 5,49.997687 l 45,0 c 0,0 -0.01113,-0.01423 -0.0011,-0.0071 z"
   id="path8753"
   style="fill:#000000;fill-opacity:1" /><path
   d="M 50.009432,49.96022 5,50.011 C 5,49.99365 5,49.97631 5,49.96127 5,43.737546 6.258191,37.828362 8.534037,32.446494 11.945494,24.37601 17.658238,17.495453 24.841955,12.642058 28.433814,10.217095 32.39226,8.298634 36.61784,6.983812 40.842264,5.670146 45.332665,4.961275 50.002313,4.961275 l 0,45 c 0,0 0.01423,-0.01113 0.0071,-0.0011 z"
   id="path8755"
   style="fill:#000000;fill-opacity:1" /><path
   d="M 50.009432,49.961232 5.8968632,50.011 c 0,-0.017 0,-0.034 0,-0.04874 0,-6.099709 1.2331201,-11.891146 3.4636173,-17.165775 C 12.70396,24.886816 18.302872,18.143362 25.343445,13.386676 28.863732,11.010033 32.743302,9.1297995 36.884682,7.8411768 41.02493,6.553687 45.425855,5.8589411 50.002455,5.8589411 l 0,44.1033249 c 0,0 0.01395,-0.01091 0.007,-0.0011 z"
   id="path8759"
   style="fill:#ffffff;fill-opacity:1" /><path
   sodipodi:type="arc"
   style="fill:none;stroke:#000000;stroke-width:6.23086214;stroke-miterlimit:4;stroke-opacity:1;stroke-dasharray:none"
   id="path3793"
   sodipodi:cx="50.09671"
   sodipodi:cy="49.709866"
   sodipodi:rx="43.326885"
   sodipodi:ry="43.326885"
   d="m 93.423595,49.709866 a 43.326885,43.326885 0 1 1 -86.65377,0 43.326885,43.326885 0 1 1 86.65377,0 z"
   transform="matrix(0.96894392,0,0,0.96894391,1.4590972,1.8339289)" /></svg>