<?xml version="1.0" encoding="UTF-8" standalone="no"?>
<!-- Created with Inkscape (http://www.inkscape.org/) -->

<svg
   xmlns:dc="http://purl.org/dc/elements/1.1/"
   xmlns:cc="http://creativecommons.org/ns#"
   xmlns:rdf="http://www.w3.org/1999/02/22-rdf-syntax-ns#"
   xmlns:svg="http://www.w3.org/2000/svg"
   xmlns="http://www.w3.org/2000/svg"
   version="1.1"
   width="100"
   height="100"
   viewBox="0 0 100 100"
   id="Icons"
   xml:space="preserve"><metadata
   id="metadata6082"><rdf:RDF><cc:Work
       rdf:about=""><dc:format>image/svg+xml</dc:format><dc:type
         rdf:resource="http://purl.org/dc/dcmitype/StillImage" /><dc:title></dc:title></cc:Work></rdf:RDF></metadata><defs
   id="defs6080" />
<path
   d="m 38.078,22.431 c 0,2.268 0,12.391 0,12.391 H 29 v 15.152 h 9.078 V 95 H 56.727 V 49.975 H 69.24 c 0,0 1.172,-7.265 1.74,-15.209 -1.629,0 -14.183,0 -14.183,0 0,0 0,-8.815 0,-10.36 0,-1.548 2.033,-3.631 4.043,-3.631 2.006,0 6.239,0 10.16,0 0,-2.063 0,-9.191 0,-15.774 -5.235,0 -11.189,0 -13.814,0 C 37.617,5 38.078,20.167 38.078,22.431 z"
   id="Facebook"
   style="fill:#3b5998;fill-opacity:1" />
</svg>