<?xml version="1.0" encoding="UTF-8" standalone="no"?>
<!-- Generator: Adobe Illustrator 15.0.0, SVG Export Plug-In . SVG Version: 6.00 Build 0)  -->

<svg
   xmlns:dc="http://purl.org/dc/elements/1.1/"
   xmlns:cc="http://creativecommons.org/ns#"
   xmlns:rdf="http://www.w3.org/1999/02/22-rdf-syntax-ns#"
   xmlns:svg="http://www.w3.org/2000/svg"
   xmlns="http://www.w3.org/2000/svg"
   xmlns:sodipodi="http://sodipodi.sourceforge.net/DTD/sodipodi-0.dtd"
   xmlns:inkscape="http://www.inkscape.org/namespaces/inkscape"
   version="1.1"
   id="Icons"
   x="0px"
   y="0px"
   width="100px"
   height="100px"
   viewBox="0 0 100 100"
   style="enable-background:new 0 0 100 100;"
   xml:space="preserve"
   inkscape:version="0.48.2 r9819"
   sodipodi:docname="facebook.svg"><metadata
   id="metadata6082"><rdf:RDF><cc:Work
       rdf:about=""><dc:format>image/svg+xml</dc:format><dc:type
         rdf:resource="http://purl.org/dc/dcmitype/StillImage" /></cc:Work></rdf:RDF></metadata><defs
   id="defs6080" /><sodipodi:namedview
   pagecolor="#ffffff"
   bordercolor="#666666"
   borderopacity="1"
   objecttolerance="10"
   gridtolerance="10"
   guidetolerance="10"
   inkscape:pageopacity="0"
   inkscape:pageshadow="2"
   inkscape:window-width="1304"
   inkscape:window-height="746"
   id="namedview6078"
   showgrid="false"
   inkscape:zoom="5.57"
   inkscape:cx="21.992819"
   inkscape:cy="50"
   inkscape:window-x="54"
   inkscape:window-y="-8"
   inkscape:window-maximized="1"
   inkscape:current-layer="Icons" />
<path
   id="Facebook"
   d="M38.078,22.431c0,2.268,0,12.391,0,12.391H29v15.152h9.078V95h18.649V49.975h12.513  c0,0,1.172-7.265,1.74-15.209c-1.629,0-14.183,0-14.183,0s0-8.815,0-10.36c0-1.548,2.033-3.631,4.043-3.631c2.006,0,6.239,0,10.16,0  c0-2.063,0-9.191,0-15.774c-5.235,0-11.189,0-13.814,0C37.617,5,38.078,20.167,38.078,22.431z"
   style="fill:#161c25;fill-opacity:1" />
</svg>