<?xml version="1.0" encoding="UTF-8" standalone="no"?>
<!-- Created with Inkscape (http://www.inkscape.org/) -->

<svg
   xmlns:dc="http://purl.org/dc/elements/1.1/"
   xmlns:cc="http://creativecommons.org/ns#"
   xmlns:rdf="http://www.w3.org/1999/02/22-rdf-syntax-ns#"
   xmlns:svg="http://www.w3.org/2000/svg"
   xmlns="http://www.w3.org/2000/svg"
   xmlns:sodipodi="http://sodipodi.sourceforge.net/DTD/sodipodi-0.dtd"
   xmlns:inkscape="http://www.inkscape.org/namespaces/inkscape"
   version="1.1"
   width="50"
   height="50"
   id="svg2"
   inkscape:version="0.48.2 r9819"
   sodipodi:docname="garmin.svg">
  <sodipodi:namedview
     pagecolor="#ffffff"
     bordercolor="#666666"
     borderopacity="1"
     objecttolerance="10"
     gridtolerance="10"
     guidetolerance="10"
     inkscape:pageopacity="0"
     inkscape:pageshadow="2"
     inkscape:window-width="1366"
     inkscape:window-height="706"
     id="namedview3045"
     showgrid="false"
     inkscape:zoom="10.34"
     inkscape:cx="9.9129594"
     inkscape:cy="25"
     inkscape:window-x="-8"
     inkscape:window-y="-8"
     inkscape:window-maximized="1"
     inkscape:current-layer="layer1" />
  <defs
     id="defs4" />
  <metadata
     id="metadata7">
    <rdf:RDF>
      <cc:Work
         rdf:about="">
        <dc:format>image/svg+xml</dc:format>
        <dc:type
           rdf:resource="http://purl.org/dc/dcmitype/StillImage" />
        <dc:title />
      </cc:Work>
    </rdf:RDF>
  </metadata>
  <g
     transform="translate(0,-1002.3622)"
     id="layer1">
    <path
       d="m 5,1002.3622 40,0 c 2.77,0 5,2.23 5,5 l 0,40 c 0,2.77 -2.23,5 -5,5 l -40,0 c -2.77,0 -5,-2.23 -5,-5 l 0,-40 c 0,-2.77 2.23,-5 5,-5 z m 20.680876,4.258 c -1.504174,-0.057 -2.607495,2.1451 -2.913236,2.6715 -11.321438,19.4942 -16.1197829,28.4335 -19.09072,33.6898 -0.4131921,0.731 -1.6090597,2.3368 -0.5385645,4.1906 0.9183293,1.5903 2.83761,1.3716 2.83761,1.3716 0,0 12.5158495,0 18.7737735,0 6.399187,0 19.19756,0 19.19756,0 0,0 1.780228,0.071 2.663213,-1.3763 0.947883,-1.5533 -0.07453,-3.4785 -0.07453,-3.4785 l -17.921268,-34.231 c -0.722271,-1.4044 -1.443174,-2.781 -2.933838,-2.8377 z"
       id="rect3763"
       style="fill:#161c25;fill-opacity:1;stroke:none" />
  </g>
</svg>
