<?xml version="1.0" encoding="UTF-8" standalone="no"?>
<!-- Created with Inkscape (http://www.inkscape.org/) -->

<svg
   xmlns:dc="http://purl.org/dc/elements/1.1/"
   xmlns:cc="http://creativecommons.org/ns#"
   xmlns:rdf="http://www.w3.org/1999/02/22-rdf-syntax-ns#"
   xmlns:svg="http://www.w3.org/2000/svg"
   xmlns="http://www.w3.org/2000/svg"
   version="1.1"
   width="100"
   height="100"
   viewBox="0 0 100 100"
   id="Layer_1"
   xml:space="preserve"><metadata
   id="metadata7130"><rdf:RDF><cc:Work
       rdf:about=""><dc:format>image/svg+xml</dc:format><dc:type
         rdf:resource="http://purl.org/dc/dcmitype/StillImage" /><dc:title></dc:title></cc:Work></rdf:RDF></metadata><defs
   id="defs7128" />
<path
   d="m 49.289,68.463 c 9.74,-0.081 16.666,-4.953 20.775,-14.614 h 0.215 v 14.735 c 0,1.098 -0.072,2.801 -0.215,5.115 -0.293,2.395 -1.076,4.973 -2.346,7.733 -1.273,2.598 -3.328,4.812 -6.16,6.637 -2.801,1.989 -6.709,3.024 -11.727,3.106 -4.834,0 -8.922,-1.259 -12.268,-3.775 -3.42,-2.477 -5.418,-6.496 -5.998,-12.057 h -4.252 c 0.436,7.225 2.742,12.381 6.922,15.467 4.07,2.962 9.234,4.445 15.488,4.445 6.178,0 10.996,-1.157 14.449,-3.472 3.416,-2.232 5.869,-5.014 7.361,-8.343 1.49,-3.328 2.381,-6.495 2.67,-9.498 0.221,-3.005 0.328,-5.156 0.328,-6.455 V 6.717 H 70.277 V 20.113 H 70.062 C 68.425,15.202 65.718,11.488 61.935,8.97 58.119,6.494 53.902,5.255 49.287,5.255 41.25,5.418 35.144,8.523 30.965,14.572 c -4.291,6.007 -6.434,13.417 -6.434,22.226 0,9.053 2.035,16.542 6.105,22.469 4.112,6.05 10.327,9.115 18.653,9.196 z M 33.912,17.861 c 3.342,-5.481 8.467,-8.322 15.377,-8.525 7.088,0.204 12.338,2.964 15.758,8.282 3.416,5.319 5.125,11.712 5.125,19.182 0,7.47 -1.709,13.822 -5.125,19.059 -3.42,5.563 -8.67,8.403 -15.758,8.525 C 42.6,64.261 37.508,61.5 34.02,56.102 30.493,50.865 28.731,44.431 28.731,36.799 28.73,29.654 30.457,23.341 33.912,17.861 z"
   id="Goodreads"
   style="fill:#684737;fill-opacity:1" />
</svg>