<?xml version="1.0" encoding="UTF-8" standalone="no"?>
<!-- Created with Inkscape (http://www.inkscape.org/) -->

<svg
   xmlns:dc="http://purl.org/dc/elements/1.1/"
   xmlns:cc="http://creativecommons.org/ns#"
   xmlns:rdf="http://www.w3.org/1999/02/22-rdf-syntax-ns#"
   xmlns:svg="http://www.w3.org/2000/svg"
   xmlns="http://www.w3.org/2000/svg"
   xmlns:sodipodi="http://sodipodi.sourceforge.net/DTD/sodipodi-0.dtd"
   xmlns:inkscape="http://www.inkscape.org/namespaces/inkscape"
   width="100"
   height="100"
   id="svg3803"
   version="1.1"
   inkscape:version="0.48.2 r9819"
   sodipodi:docname="path.to.svg">
  <defs
     id="defs3805" />
  <sodipodi:namedview
     id="base"
     pagecolor="#ffffff"
     bordercolor="#666666"
     borderopacity="1.0"
     inkscape:pageopacity="0.0"
     inkscape:pageshadow="2"
     inkscape:zoom="5.57"
     inkscape:cx="21.992819"
     inkscape:cy="50"
     inkscape:document-units="px"
     inkscape:current-layer="layer1"
     showgrid="false"
     inkscape:window-width="1304"
     inkscape:window-height="746"
     inkscape:window-x="54"
     inkscape:window-y="-8"
     inkscape:window-maximized="1" />
  <metadata
     id="metadata3808">
    <rdf:RDF>
      <cc:Work
         rdf:about="">
        <dc:format>image/svg+xml</dc:format>
        <dc:type
           rdf:resource="http://purl.org/dc/dcmitype/StillImage" />
        <dc:title></dc:title>
      </cc:Work>
    </rdf:RDF>
  </metadata>
  <g
     inkscape:label="Layer 1"
     inkscape:groupmode="layer"
     id="layer1"
     transform="translate(0,-952.36218)">
    <path
       style="fill:#161c25;display:inline;fill-opacity:1"
       d="m 42.01302,1046.6609 c -17.340615,-3.1432 -31.189871,-15.9659 -35.8182539,-33.1631 -1.5930215,-5.919 -1.5930215,-16.36877 0,-22.2878 4.6797259,-17.38801 18.5604499,-30.11253 36.2103589,-33.1942 20.668461,-3.6087 41.823042,8.03877 49.406941,27.2029 C 94.507035,992.02874 95,994.67843 95,1002.3539 c 0,7.6755 -0.492965,10.3252 -3.187934,17.1352 -7.612084,19.2354 -29.05052,30.9328 -49.799046,27.1718 z m 14.419181,-16.9384 c 3.214143,-1.3446 4.734837,-2.9439 11.029733,-11.5999 3.414301,-4.695 6.396089,-8.6528 6.626183,-8.7952 0.230101,-0.1424 1.513241,0.5458 2.851421,1.5293 1.338181,0.9836 2.505147,1.7076 2.593262,1.6091 0.08812,-0.098 0.31775,-4.7352 0.51029,-10.3037 0.290978,-8.41534 0.23966,-10.07933 -0.303933,-9.85601 -6.598747,2.71084 -17.203651,7.31934 -17.506164,7.60744 -0.219108,0.20867 0.325319,0.84307 1.209836,1.40977 3.851968,2.468 4.10149,1.4786 -2.763461,10.9575 -3.39686,4.6903 -6.565117,8.7363 -7.040566,8.991 -0.475453,0.2548 -1.766616,0.4632 -2.869239,0.4632 -2.784533,0 -4.833935,-2.0189 -4.833935,-4.762 0,-1.6976 0.755054,-2.9894 6.283023,-10.75 3.455663,-4.8512 6.503235,-9.61417 6.772381,-10.58437 2.605299,-9.39113 -4.055995,-18.43789 -13.599482,-18.46957 -3.608803,-0.012 -6.619434,0.88543 -8.955566,2.66947 -0.869653,0.66413 -3.43665,3.79385 -5.704439,6.95492 l -4.123253,5.7474 -2.645463,0.21965 c -8.113786,0.67368 -11.87869,10.502 -6.411273,16.7367 5.795815,6.6091 16.924436,3.1513 17.639406,-5.4808 0.120626,-1.4564 -0.04404,-3.5898 -0.365962,-4.74087 l -0.585274,-2.093 3.444099,-4.80336 c 1.894254,-2.64186 4.035848,-5.1838 4.7591,-5.64875 3.723613,-2.3938 9.026778,1.12254 8.169026,5.41658 -0.155567,0.77879 -2.782512,4.90533 -5.837664,9.1701 -3.055141,4.2648 -5.89469,8.4123 -6.310099,9.2166 -4.899096,9.4854 2.82879,21.13 13.396685,20.1865 1.528819,-0.1365 3.585916,-0.5855 4.571328,-0.9977 z m -33.725427,-24.4614 c -2.165095,-2.1678 -0.54283,-5.81437 2.586634,-5.81437 2.003456,0 3.220579,1.25037 3.220579,3.30867 0,1.9508 -1.485692,3.4747 -3.38754,3.4747 -0.806559,0 -1.881969,-0.4307 -2.419673,-0.969 z"
       id="path3789"
       inkscape:connector-curvature="0"
       sodipodi:nodetypes="sssssssssssssssssssssssssscsssscssssssssssss" />
  </g>
</svg>
