<?xml version="1.0" encoding="UTF-8" standalone="no"?>
<svg
   xmlns:dc="http://purl.org/dc/elements/1.1/"
   xmlns:cc="http://creativecommons.org/ns#"
   xmlns:rdf="http://www.w3.org/1999/02/22-rdf-syntax-ns#"
   xmlns:svg="http://www.w3.org/2000/svg"
   xmlns="http://www.w3.org/2000/svg"
   xmlns:xlink="http://www.w3.org/1999/xlink"
   xmlns:sodipodi="http://sodipodi.sourceforge.net/DTD/sodipodi-0.dtd"
   xmlns:inkscape="http://www.inkscape.org/namespaces/inkscape"
   width="16"
   height="16"
   id="svg3003"
   version="1.1"
   inkscape:version="0.48.2 r9819"
   sodipodi:docname="search-icon.svg">
  <sodipodi:namedview
     pagecolor="#ffffff"
     bordercolor="#666666"
     borderopacity="1"
     objecttolerance="10"
     gridtolerance="10"
     guidetolerance="10"
     inkscape:pageopacity="0"
     inkscape:pageshadow="2"
     inkscape:window-width="1304"
     inkscape:window-height="746"
     id="namedview3019"
     showgrid="false"
     inkscape:zoom="34.8125"
     inkscape:cx="8"
     inkscape:cy="8"
     inkscape:window-x="54"
     inkscape:window-y="-8"
     inkscape:window-maximized="1"
     inkscape:current-layer="svg3003" />
  <title
     id="title3005">search icon</title>
  <defs
     id="defs3007">
    <linearGradient
       id="linearGradient12975">
      <stop
         offset="0"
         id="stop12977"
         stop-color="#ffffff" />
      <stop
         offset="1"
         id="stop12979"
         stop-color="#d2d5d8" />
    </linearGradient>
    <linearGradient
       xlink:href="#linearGradient12975"
       id="linearGradient12981"
       x1="0.5"
       y1="0.166667"
       x2="0.162791"
       y2="1.236288" />
  </defs>
  <metadata
     id="metadata12220">image/svg+xmlSergio Luiz Araujo Silvasearchiconsinformaticcomputer<rdf:RDF>
  <cc:Work
     rdf:about="">
    <dc:format>image/svg+xml</dc:format>
    <dc:type
       rdf:resource="http://purl.org/dc/dcmitype/StillImage" />
    <dc:title>search icon</dc:title>
  </cc:Work>
</rdf:RDF>
</metadata>
  <g
     id="g3014"
     style="fill:#3c5e73;fill-opacity:1"
     transform="matrix(0.04842243,0,0,0.04856119,0.73700805,0.67797823)">
    <title
       id="title3016">Layer 1</title>
    <path
       d="M 37.938995,39.085999 C -5.334,82.358002 -5.440003,153.245 37.833007,196.51801 74.496001,233.18103 131.035,238.76801 173.754,213.284 l 76.34399,74.23498 c 10.50699,10.198 27.08499,9.82105 37.11697,-0.84399 10.03303,-10.66498 9.77002,-27.44599 -0.73797,-37.64398 L 211.29401,176.16699 C 237.655,133.32001 232.302,76.122009 195.26599,39.085998 c -43.27298,-43.27301 -114.054992,-43.27301 -157.326995,0 l 0,0 z m 31.738983,31.739014 c 26.10202,-26.10202 67.746032,-26.10202 93.848022,0 26.10199,26.10199 26.10199,67.745967 0,93.847957 -26.10199,26.10205 -67.746002,26.10205 -93.848022,0 -26.10199,-26.10199 -26.10199,-67.745968 0,-93.847957 z"
       id="path12423"
       style="fill:#3c5e73;fill-opacity:1"
       inkscape:connector-curvature="0" />
  </g>
</svg>
