<?xml version="1.0" encoding="UTF-8" standalone="no"?>
<!-- Created with Inkscape (http://www.inkscape.org/) -->

<svg
   xmlns:dc="http://purl.org/dc/elements/1.1/"
   xmlns:cc="http://creativecommons.org/ns#"
   xmlns:rdf="http://www.w3.org/1999/02/22-rdf-syntax-ns#"
   xmlns:svg="http://www.w3.org/2000/svg"
   xmlns="http://www.w3.org/2000/svg"
   version="1.1"
   width="100"
   height="100"
   viewBox="0 0 100 100"
   id="Icons"
   xml:space="preserve"><metadata
   id="metadata7666"><rdf:RDF><cc:Work
       rdf:about=""><dc:format>image/svg+xml</dc:format><dc:type
         rdf:resource="http://purl.org/dc/dcmitype/StillImage" /><dc:title></dc:title></cc:Work></rdf:RDF></metadata><defs
   id="defs7664" />
<path
   d="M 72.262,72.496 H 50.054 c -3.087,0 -5.712,-1.08 -7.869,-3.25 -2.167,-2.172 -3.238,-4.797 -3.238,-7.899 v -7.903 h 31.644 c 2.854,0 5.312,-1.026 7.354,-3.063 2.042,-2.054 3.066,-4.509 3.066,-7.366 0,-2.867 -1.025,-5.319 -3.072,-7.366 -2.049,-2.042 -4.514,-3.066 -7.38,-3.066 H 38.947 V 16.254 c 0,-3.09 -1.102,-5.735 -3.29,-7.939 C 33.478,6.107 30.843,5 27.782,5 24.636,5 21.957,6.091 19.778,8.25 17.592,10.416 16.5,13.084 16.5,16.264 v 45.09 c 0,9.274 3.278,17.197 9.837,23.773 C 32.902,91.715 40.815,95 50.067,95 h 22.202 c 3.083,0 5.729,-1.107 7.93,-3.315 2.203,-2.197 3.302,-4.848 3.302,-7.935 0,-3.088 -1.099,-5.734 -3.302,-7.941 -2.202,-2.202 -4.852,-3.313 -7.937,-3.313 z"
   id="Twitter"
   style="fill:#9ae4e8;fill-opacity:1" />
</svg>