<?xml version="1.0" encoding="UTF-8" standalone="no"?>
<!-- Generator: Adobe Illustrator 15.0.0, SVG Export Plug-In . SVG Version: 6.00 Build 0)  -->

<svg
   xmlns:dc="http://purl.org/dc/elements/1.1/"
   xmlns:cc="http://creativecommons.org/ns#"
   xmlns:rdf="http://www.w3.org/1999/02/22-rdf-syntax-ns#"
   xmlns:svg="http://www.w3.org/2000/svg"
   xmlns="http://www.w3.org/2000/svg"
   xmlns:sodipodi="http://sodipodi.sourceforge.net/DTD/sodipodi-0.dtd"
   xmlns:inkscape="http://www.inkscape.org/namespaces/inkscape"
   version="1.1"
   id="Icons"
   x="0px"
   y="0px"
   width="100px"
   height="100px"
   viewBox="0 0 100 100"
   style="enable-background:new 0 0 100 100;"
   xml:space="preserve"
   inkscape:version="0.48.2 r9819"
   sodipodi:docname="twitter.svg"><metadata
   id="metadata7666"><rdf:RDF><cc:Work
       rdf:about=""><dc:format>image/svg+xml</dc:format><dc:type
         rdf:resource="http://purl.org/dc/dcmitype/StillImage" /></cc:Work></rdf:RDF></metadata><defs
   id="defs7664" /><sodipodi:namedview
   pagecolor="#ffffff"
   bordercolor="#666666"
   borderopacity="1"
   objecttolerance="10"
   gridtolerance="10"
   guidetolerance="10"
   inkscape:pageopacity="0"
   inkscape:pageshadow="2"
   inkscape:window-width="708"
   inkscape:window-height="482"
   id="namedview7662"
   showgrid="false"
   inkscape:zoom="2.36"
   inkscape:cx="50"
   inkscape:cy="50"
   inkscape:window-x="138"
   inkscape:window-y="83"
   inkscape:window-maximized="0"
   inkscape:current-layer="Icons" />
<path
   id="Twitter"
   d="M72.262,72.496H50.054c-3.087,0-5.712-1.08-7.869-3.25c-2.167-2.172-3.238-4.797-3.238-7.899v-7.903h31.644  c2.854,0,5.312-1.026,7.354-3.063c2.042-2.054,3.066-4.509,3.066-7.366c0-2.867-1.025-5.319-3.072-7.366  c-2.049-2.042-4.514-3.066-7.38-3.066H38.947V16.254c0-3.09-1.102-5.735-3.29-7.939C33.478,6.107,30.843,5,27.782,5  c-3.146,0-5.825,1.091-8.004,3.25c-2.186,2.166-3.278,4.834-3.278,8.014v45.09c0,9.274,3.278,17.197,9.837,23.773  C32.902,91.715,40.815,95,50.067,95h22.202c3.083,0,5.729-1.107,7.93-3.315c2.203-2.197,3.302-4.848,3.302-7.935  c0-3.088-1.099-5.734-3.302-7.941C77.997,73.607,75.347,72.496,72.262,72.496z"
   style="fill:#161c25;fill-opacity:1" />
</svg>