<?xml version="1.0" encoding="UTF-8" standalone="no"?>
<!-- Generator: Adobe Illustrator 15.0.0, SVG Export Plug-In . SVG Version: 6.00 Build 0)  -->

<svg
   xmlns:dc="http://purl.org/dc/elements/1.1/"
   xmlns:cc="http://creativecommons.org/ns#"
   xmlns:rdf="http://www.w3.org/1999/02/22-rdf-syntax-ns#"
   xmlns:svg="http://www.w3.org/2000/svg"
   xmlns="http://www.w3.org/2000/svg"
   xmlns:sodipodi="http://sodipodi.sourceforge.net/DTD/sodipodi-0.dtd"
   xmlns:inkscape="http://www.inkscape.org/namespaces/inkscape"
   version="1.1"
   id="Icons"
   x="0px"
   y="0px"
   width="100px"
   height="100px"
   viewBox="0 0 100 100"
   style="enable-background:new 0 0 100 100;"
   xml:space="preserve"
   inkscape:version="0.48.2 r9819"
   sodipodi:docname="youtube.svg"><metadata
   id="metadata8190"><rdf:RDF><cc:Work
       rdf:about=""><dc:format>image/svg+xml</dc:format><dc:type
         rdf:resource="http://purl.org/dc/dcmitype/StillImage" /></cc:Work></rdf:RDF></metadata><defs
   id="defs8188" /><sodipodi:namedview
   pagecolor="#ffffff"
   bordercolor="#666666"
   borderopacity="1"
   objecttolerance="10"
   gridtolerance="10"
   guidetolerance="10"
   inkscape:pageopacity="0"
   inkscape:pageshadow="2"
   inkscape:window-width="1304"
   inkscape:window-height="746"
   id="namedview8186"
   showgrid="false"
   inkscape:zoom="5.57"
   inkscape:cx="50"
   inkscape:cy="50"
   inkscape:window-x="54"
   inkscape:window-y="-8"
   inkscape:window-maximized="1"
   inkscape:current-layer="Icons" />
<path
   id="path8708"
   style="fill:#161c25;fill-opacity:1"
   d="m 79.891,77.96 -3.911,0.021 c -0.002,0.155 -0.007,0.334 -0.009,0.529 v 2.182 c 0,1.167 -0.965,2.118 -2.137,2.118 h -0.766 c -1.174,0 -2.138,-0.951 -2.138,-2.118 v -0.242 -2.4 -3.097 h 8.954 v -3.37 c 0,-2.463 -0.063,-4.925 -0.267,-6.333 -0.64,-4.454 -6.892,-5.161 -10.05,-2.881 -0.992,0.712 -1.749,1.665 -2.189,2.946 -0.445,1.281 -0.665,3.031 -0.665,5.254 v 7.409 C 66.714,90.296 81.676,88.555 79.891,77.96 z M 63.57,79.607 63.559,67.18 c -0.004,-4.736 -3.547,-7.573 -8.357,-3.741 l 0.021,-9.239 -5.21,0.008 -0.025,31.89 4.283,-0.063 0.39,-1.986 c 5.476,5.023 8.917,1.582 8.909,-4.442 z M 46.887,62.509 H 41.672 V 77.44 c 0,2.16 0.131,3.24 -0.008,3.621 -0.424,1.158 -2.33,2.387 -3.073,0.125 -0.126,-0.396 -0.015,-1.591 -0.017,-3.643 L 38.553,62.509 h -5.186 l 0.016,14.797 c 0.004,2.268 -0.051,3.96 0.018,4.729 0.127,1.357 0.082,2.94 1.341,3.843 2.346,1.691 6.843,-0.252 7.968,-2.668 l -0.01,3.083 4.188,0.005 V 62.509 z m -18.75,23.796 -0.004,-27.961 6.255,0.002 V 54.203 L 17.714,54.178 v 4.073 l 5.205,0.015 v 28.039 h 5.218 z M 87.5,56.879 V 83.423 C 87.5,89.79 81.978,95 75.23,95 H 24.771 C 18.02,95 12.5,89.79 12.5,83.423 V 56.879 c 0,-6.367 5.52,-11.578 12.271,-11.578 H 75.23 c 6.748,0 12.27,5.211 12.27,11.578 z m -30.087,7.805 c -1.253,0 -2.278,0.842 -2.278,1.873 V 80.51 c 0,1.029 1.025,1.869 2.278,1.869 1.258,0 2.284,-0.84 2.284,-1.869 V 66.557 c 0,-1.032 -1.026,-1.873 -2.284,-1.873 z M 75.94,70.832 H 71 l 0.023,-2.869 c 0,-1.275 1.047,-2.318 2.327,-2.318 h 0.315 c 1.282,0 2.332,1.043 2.332,2.318 l -0.057,2.869 z" /><path
   id="YouTube"
   style="fill:#161c25;fill-opacity:1"
   d="m 30.682,40.235 h 5.484 l 0.006,-18.96 6.48,-16.242 H 36.654 L 33.209,17.097 29.715,5 h -5.936 l 6.894,16.284 0.009,18.951 z M 46.77,33.59 c 0,1.4 1.042,2.543 2.311,2.543 1.27,0 2.307,-1.143 2.307,-2.543 V 20.43 c 0,-1.398 -1.037,-2.541 -2.307,-2.541 -1.269,0 -2.311,1.143 -2.311,2.541 v 13.16 z m -4.553,-9.82 c 0,-2.373 0.198,-4.226 0.591,-5.562 0.396,-1.331 1.107,-2.401 2.137,-3.208 1.027,-0.811 2.342,-1.217 3.941,-1.217 1.345,0 2.497,0.264 3.46,0.781 0.967,0.52 1.712,1.195 2.23,2.028 0.527,0.836 0.885,1.695 1.076,2.574 0.195,0.891 0.291,2.235 0.291,4.048 v 6.252 c 0,2.293 -0.092,3.98 -0.27,5.051 -0.177,1.074 -0.557,2.07 -1.145,3.004 -0.581,0.924 -1.33,1.615 -2.238,2.056 -0.918,0.445 -1.968,0.663 -3.154,0.663 -1.325,0 -2.441,-0.183 -3.361,-0.565 -0.923,-0.38 -1.636,-0.953 -2.144,-1.714 -0.513,-0.762 -0.874,-1.69 -1.092,-2.772 -0.219,-1.081 -0.323,-2.707 -0.323,-4.874 V 23.77 z m 17.616,13.962 c 0.269,0.654 0.687,1.184 1.254,1.584 0.56,0.394 1.277,0.592 2.134,0.592 0.752,0 1.418,-0.203 1.998,-0.622 0.578,-0.417 1.065,-1.04 1.462,-1.871 l -0.098,2.046 h 5.813 V 14.74 H 67.82 v 19.24 c 0,1.042 -0.858,1.895 -1.907,1.895 -1.043,0 -1.904,-0.853 -1.904,-1.895 V 14.74 h -4.776 v 16.674 c 0,2.124 0.038,3.54 0.101,4.258 0.067,0.713 0.23,1.397 0.499,2.06 z" />
</svg>